<svg width="242" height="242" viewBox="0 0 242 242" fill="none" xmlns="http://www.w3.org/2000/svg">
<path d="M79.5989 162.137C79.9769 162.514 80.4895 162.726 81.024 162.726C81.5585 162.726 82.071 162.514 82.449 162.137L120.998 123.648L159.547 162.137C159.927 162.503 160.436 162.706 160.964 162.702C161.493 162.697 161.999 162.485 162.372 162.112C162.746 161.739 162.958 161.234 162.963 160.707C162.967 160.179 162.764 159.671 162.397 159.291L123.848 120.802L162.397 82.3129C162.764 81.9334 162.967 81.425 162.963 80.8974C162.958 80.3697 162.746 79.8649 162.372 79.4918C161.999 79.1187 161.493 78.907 160.964 78.9024C160.436 78.8978 159.927 79.1007 159.547 79.4673L120.998 117.956L82.449 79.4673C82.0689 79.1007 81.5597 78.8978 81.0312 78.9024C80.5027 78.907 79.9972 79.1187 79.6235 79.4918C79.2498 79.8649 79.0378 80.3697 79.0332 80.8974C79.0286 81.425 79.2318 81.9334 79.5989 82.3129L118.148 120.802L79.5989 159.291C79.2211 159.668 79.0088 160.18 79.0088 160.714C79.0088 161.248 79.2211 161.759 79.5989 162.137Z" fill="#CC2525"/>
<path d="M206.515 35.4197C189.602 18.5328 168.053 7.03261 144.594 2.37341C121.135 -2.28578 96.8187 0.10526 74.7205 9.24418C52.6222 18.3831 33.7344 33.8594 20.4454 53.7162C7.15642 73.5729 0.0631332 96.9182 0.0625098 120.8C0.0586353 130.41 1.19823 139.986 3.45733 149.327C3.58315 149.846 3.91024 150.294 4.36663 150.572C4.82302 150.85 5.37133 150.935 5.89094 150.81C6.41055 150.684 6.85889 150.357 7.13734 149.902C7.41579 149.446 7.50153 148.899 7.3757 148.38C5.19137 139.349 4.08966 130.091 4.09376 120.8C4.09376 56.4377 56.5378 4.075 121 4.075C185.462 4.075 237.906 56.4377 237.906 120.8C237.906 185.162 185.462 237.525 121 237.525C100.718 237.467 80.7958 232.17 63.1711 222.149C45.5464 212.128 30.8187 197.723 20.4203 180.336C20.1436 179.885 19.7 179.561 19.1856 179.434C18.6712 179.307 18.1274 179.387 17.6719 179.657C17.2163 179.927 16.8856 180.366 16.7515 180.878C16.6173 181.39 16.6904 181.934 16.955 182.392C27.659 200.425 42.8824 215.364 61.1263 225.737C79.3702 236.11 100.005 241.56 121 241.55C144.919 241.549 168.3 234.467 188.187 221.199C208.075 207.931 223.575 189.073 232.728 167.009C241.882 144.946 244.277 120.668 239.611 97.245C234.945 73.8223 223.428 52.307 206.515 35.4197Z" fill="#CC2525"/>
<path d="M13.2647 166.213C13.03 165.741 12.6192 165.379 12.1204 165.207C11.6217 165.034 11.0749 165.063 10.5976 165.288C10.1204 165.514 9.75067 165.917 9.56804 166.412C9.38541 166.906 9.40443 167.453 9.621 167.933C9.63359 167.961 9.64669 167.989 9.6603 168.017C9.89555 168.488 10.3062 168.848 10.8043 169.02C11.3024 169.193 11.8483 169.163 12.3249 168.938C12.8016 168.714 13.171 168.311 13.3542 167.818C13.5373 167.324 13.5195 166.779 13.3045 166.298C13.294 166.269 13.2804 166.241 13.2647 166.213Z" fill="#CC2525"/>
</svg>
