<svg width="46" height="32" viewBox="0 0 46 32" fill="none" xmlns="http://www.w3.org/2000/svg">
<path d="M41.0714 0H4.92857C2.20758 0 0 2.14999 0 4.8V27.2C0 29.85 2.20758 32 4.92857 32H41.0714C43.7924 32 46 29.85 46 27.2V4.8C46 2.14999 43.7924 0 41.0714 0ZM39.7571 3.2L23.9158 13.4861C23.3654 13.8461 22.6446 13.8461 22.0922 13.4861L6.24296 3.2H39.7571ZM41.0714 28.8H4.92857C4.02087 28.8 3.28571 28.084 3.28571 27.2V5.12L20.2668 16.1459C21.922 17.2219 24.0782 17.2219 25.7332 16.1459L42.7143 5.12V27.2C42.7143 27.624 42.5418 28.032 42.2337 28.332C41.9257 28.632 41.5068 28.8 41.0714 28.8Z" fill="#5D5D5D"/>
</svg>
