<svg width="36" height="44" viewBox="0 0 36 44" fill="none" xmlns="http://www.w3.org/2000/svg">
<path d="M36 42C36 43.1046 35.1046 44 34 44C32.8954 44 32 43.1046 32 42C32 34.268 25.732 28 18 28C10.268 28 4 34.268 4 42C4 43.1046 3.10457 44 2 44C0.89543 44 0 43.1046 0 42C0 32.0589 8.05887 24 18 24C27.9411 24 36 32.0589 36 42ZM18 22C11.9249 22 7 17.0751 7 11C7 4.92487 11.9249 0 18 0C24.0751 0 29 4.92487 29 11C29 17.0751 24.0751 22 18 22ZM18 18C21.866 18 25 14.866 25 11C25 7.13401 21.866 4 18 4C14.134 4 11 7.13401 11 11C11 14.866 14.134 18 18 18Z" fill="#5D5D5D"/>
</svg>
