<svg width="96" height="96" viewBox="0 0 96 96" fill="none" xmlns="http://www.w3.org/2000/svg">
<path d="M91.1 28C89.4 29.9 87.8 31.8 86.3 33.7C85.6 34.5 85 35.3 84.3 36.2C85.5 39.9 86.2 43.9 86.2 48C86.1 69 69 86.1 48 86.1C27 86.1 9.9 69 9.9 48C9.9 27 27 9.9 48 9.9C54.7 9.9 61.1 11.7 66.6 14.7C68.5 12.8 70.4 11 72.4 9.2L73.7 8.1C66.3 3.3 57.5 0.5 48 0.5C21.8 0.5 0.5 21.8 0.5 48C0.5 74.2 21.8 95.5 48 95.5C74.2 95.5 95.5 74.2 95.5 48C95.5 40.9 93.9 34.1 91.1 28Z" fill="#1CC236"/>
<path d="M61.4 33.9C57.8 38.3 54.4 42.8 51.2 47.4C49.6 49.7 48 52.1 46.5 54.5L33.7 38.7C32.2 36.9 29.6 36.5 27.6 37.8C25.5 39.2 25 42 26.4 44.1L42.5 68C42.9 68.6 43.5 69.2 44.2 69.6C45.1 70.2 46.1 70.5 47.1 70.5C49 70.5 51.1 69.5 52 67.8C52.9 66.2 57.4 57.9 60.4 53.4C63.3 48.9 66.3 44.5 69.6 40.2C72.8 35.9 76.2 31.7 79.8 27.7C83.3 23.7 87.1 19.6 90.9 16.1L91 16C92.8 14.3 92.9 11.5 91.3 9.7C89.6 7.8 86.8 7.6 84.9 9.3C80.5 13.2 76.6 17.1 72.7 21.2C68.7 25.3 64.9 29.5 61.4 33.9Z" fill="#1CC236"/>
</svg>
